<svg xmlns="http://www.w3.org/2000/svg" xmlns:xlink="http://www.w3.org/1999/xlink" version="1.1" x="0px" y="0px" viewBox="0 0 100 100" enable-background="new 0 0 100 100" xml:space="preserve"><g><path d="M50,95C25.2,95,5,74.8,5,50S25.2,5,50,5s45,20.2,45,45S74.8,95,50,95z M50,7.5C26.6,7.5,7.5,26.6,7.5,50S26.6,92.5,50,92.5   S92.5,73.4,92.5,50S73.4,7.5,50,7.5z"/><path d="M52.3,94.9c-0.3,0-0.5-0.1-0.8-0.3C36.7,82.8,39.1,63.5,39.2,62.7c0.1-0.4,0.3-0.8,0.7-1c0.3-0.1,31.8-14.7,34.3-38.1   c0-0.3,0.2-0.7,0.5-0.9c0.3-0.2,0.6-0.3,1-0.2c0.4,0.1,9,1.6,12.9,4.6c0.6,0.4,0.7,1.2,0.3,1.7c-0.4,0.6-1.2,0.7-1.7,0.3   c-2.7-2-8.1-3.3-10.6-3.9c-3.4,22.4-30.2,36.2-34.9,38.5c-0.3,3.4-0.8,19.2,11.4,28.9c0.5,0.4,0.6,1.2,0.2,1.8   C53,94.7,52.7,94.9,52.3,94.9z"/><path d="M40.5,64.1c-0.4,0-0.7-0.2-1-0.4c-0.1-0.1-10.1-11.8-33.1-19.2c-0.7-0.2-1-0.9-0.8-1.6c0.2-0.7,0.9-1,1.6-0.8   c23.7,7.7,33.9,19.5,34.3,20c0.4,0.5,0.4,1.3-0.2,1.8C41,64,40.8,64.1,40.5,64.1z"/><path d="M75.5,25c-0.4,0-0.7-0.2-1-0.5c-0.1-0.1-10.7-13.8-24.8-17C49,7.3,48.6,6.6,48.8,6c0.2-0.7,0.8-1.1,1.5-0.9   C65.2,8.4,76,22.4,76.5,23c0.4,0.5,0.3,1.3-0.2,1.8C76,24.9,75.7,25,75.5,25z"/><path d="M69.2,41c-0.4,0-0.8-0.2-1.1-0.6c-0.1-0.2-13.4-21.2-38.7-28c-0.7-0.2-1.1-0.9-0.9-1.5c0.2-0.7,0.9-1.1,1.5-0.9   c26.3,7,39.6,28.2,40.2,29.1c0.4,0.6,0.2,1.4-0.4,1.7C69.7,40.9,69.5,41,69.2,41z"/><path d="M57.2,53.6c-0.4,0-0.7-0.1-1-0.4C56.1,53,41.1,35.6,13.4,26.6c-0.7-0.2-1-0.9-0.8-1.6c0.2-0.7,0.9-1,1.6-0.8   c28.4,9.2,43.4,26.5,44,27.3c0.4,0.5,0.4,1.3-0.1,1.8C57.8,53.5,57.5,53.6,57.2,53.6z"/><path d="M43.6,83.6c-0.5,0-1-0.3-1.2-0.8c-0.3-0.6,0-1.4,0.7-1.6c0.4-0.2,39.3-16.3,45.5-49.4c0.1-0.7,0.8-1.1,1.5-1   c0.7,0.1,1.1,0.8,1,1.5c-6.5,34.5-46.6,51.1-47,51.3C43.9,83.6,43.8,83.6,43.6,83.6z"/><path d="M50,92.7c-0.6,0-1.1-0.4-1.2-1c-0.2-0.7,0.3-1.3,0.9-1.5c0.3-0.1,33.2-7.9,42.4-34.3c0.2-0.7,0.9-1,1.6-0.8   c0.7,0.2,1,0.9,0.8,1.6c-9.7,27.7-43.8,35.8-44.2,35.9C50.2,92.7,50.1,92.7,50,92.7z"/><path d="M29.8,90.1c-0.4,0-0.7-0.2-1-0.5c-11.9-14.5-7.4-38.8-7.2-39.9c0.1-0.7,0.8-1.1,1.5-1c0.7,0.1,1.1,0.8,1,1.5   c0,0.2-4.4,24.2,6.7,37.8c0.4,0.5,0.4,1.3-0.2,1.8C30.4,90,30.1,90.1,29.8,90.1z"/><path d="M8.8,66.1c-0.6,0-1.2-0.5-1.2-1.1c-1.2-9,3.5-19.8,3.6-20.3c0.3-0.6,1-0.9,1.6-0.6c0.6,0.3,0.9,1,0.6,1.6   c0,0.1-4.6,10.7-3.5,19c0.1,0.7-0.4,1.3-1.1,1.4C9,66.1,8.9,66.1,8.8,66.1z"/></g></svg>